<svg xmlns="http://www.w3.org/2000/svg" xmlns:xlink="http://www.w3.org/1999/xlink" width="24" height="24" preserveAspectRatio="xMidYMid meet" viewBox="0 0 16 16" style="-ms-transform: rotate(360deg); -webkit-transform: rotate(360deg); transform: rotate(360deg);"><g fill="none"><path d="M4.5 9.003a.5.5 0 0 0-.5.5v2a.5.5 0 0 0 1 0v-.166h.333a1.167 1.167 0 0 0 0-2.334H4.5zm.833 1.334H5v-.334h.333a.167.167 0 0 1 0 .334z" fill="currentColor"/><path d="M10 9.502a.5.5 0 0 1 .5-.499h.999a.5.5 0 0 1 0 1h-.5v.335h.5a.5.5 0 1 1 0 1H11v.164a.5.5 0 0 1-1 .002L10 10.837L10 9.502z" fill="currentColor"/><path d="M7.498 9.003a.5.5 0 0 0-.5.5v2a.5.5 0 0 0 .5.5H8a1.5 1.5 0 0 0 0-3h-.502zm.5 2v-1H8a.5.5 0 0 1 0 1h-.002z" fill="currentColor"/><path d="M9 2.002H4.5a1.5 1.5 0 0 0-1.5 1.5v3.582A1.5 1.5 0 0 0 2 8.5v4.003a1.5 1.5 0 0 0 1.5 1.5h9a1.5 1.5 0 0 0 1.5-1.5V8.499a1.5 1.5 0 0 0-1-1.415V6h-2.5A1.5 1.5 0 0 1 9 4.5V2.002zM3.5 7.999h9a.5.5 0 0 1 .5.5v4.003a.5.5 0 0 1-.5.5h-9a.5.5 0 0 1-.5-.5V8.499a.5.5 0 0 1 .5-.5z" fill="currentColor"/><path d="M12.706 5H10.5a.5.5 0 0 1-.5-.5V2.297L12.706 5z" fill="currentColor"/></g><rect x="0" y="0" width="16" height="16" fill="rgba(0, 0, 0, 0)" /></svg>