<svg xmlns="http://www.w3.org/2000/svg" viewBox="0 0 24 24" width="{{ .width }}" height="{{ .height }}"><path fill="currentColor" d="M 5 3 C 3.9069372 3 3 3.9069372 3 5 L 3 8 A 1.0001 1.0001 0 1 0 5 8 L 5 5 L 8 5 A 1.0001 1.0001 0 1 0 8 3 L 5 3 z M 16 3 A 1.0001 1.0001 0 1 0 16 5 L 19 5 L 19 8 A 1.0001 1.0001 0 1 0 21 8 L 21 5 C 21 3.9069372 20.093063 3 19 3 L 16 3 z M 3.984375 14.986328 A 1.0001 1.0001 0 0 0 3 16 L 3 19 C 3 20.093063 3.9069372 21 5 21 L 8 21 A 1.0001 1.0001 0 1 0 8 19 L 5 19 L 5 16 A 1.0001 1.0001 0 0 0 3.984375 14.986328 z M 19.984375 14.986328 A 1.0001 1.0001 0 0 0 19 16 L 19 19 L 16 19 A 1.0001 1.0001 0 1 0 16 21 L 19 21 C 20.093063 21 21 20.093063 21 19 L 21 16 A 1.0001 1.0001 0 0 0 19.984375 14.986328 z"/></svg>