<?xml version="1.0" encoding="UTF-8" standalone="yes"?>
<svg xmlns="http://www.w3.org/2000/svg" viewBox="0 0 24 24" width="{{ .width }}" height="{{ .height }}" fill="#000000">
  <path d="M 5.5625 0 C 4.136719 0 2.707031 0.542969 1.625 1.625 C -0.539063 3.789063 -0.539063 7.335938 1.625 9.5 L 5.28125 13.15625 C 5.667969 13.554688 6.304688 13.558594 6.703125 13.171875 C 7.101563 12.785156 7.105469 12.148438 6.71875 11.75 L 3.03125 8.0625 C 1.632813 6.664063 1.632813 4.429688 3.03125 3.03125 C 4.429688 1.632813 6.664063 1.632813 8.0625 3.03125 L 12.96875 7.9375 C 14.367188 9.335938 14.367188 11.570313 12.96875 12.96875 C 12.804688 13.132813 12.621094 13.25 12.4375 13.375 C 11.980469 13.6875 11.859375 14.308594 12.171875 14.765625 C 12.484375 15.222656 13.105469 15.34375 13.5625 15.03125 C 13.847656 14.835938 14.125 14.625 14.375 14.375 C 16.539063 12.210938 16.539063 8.664063 14.375 6.5 L 9.5 1.625 C 8.417969 0.542969 6.988281 0 5.5625 0 Z M 10.78125 8.875 C 10.738281 8.882813 10.695313 8.894531 10.65625 8.90625 C 10.507813 8.9375 10.371094 9 10.25 9.09375 C 10.039063 9.253906 9.820313 9.429688 9.625 9.625 C 7.460938 11.789063 7.460938 15.335938 9.625 17.5 L 14.5 22.375 C 16.664063 24.539063 20.210938 24.539063 22.375 22.375 C 24.539063 20.210938 24.539063 16.664063 22.375 14.5 L 18.71875 10.875 C 18.476563 10.578125 18.089844 10.441406 17.714844 10.527344 C 17.34375 10.613281 17.050781 10.90625 16.964844 11.277344 C 16.878906 11.652344 17.015625 12.039063 17.3125 12.28125 L 20.96875 15.9375 C 22.367188 17.335938 22.367188 19.570313 20.96875 20.96875 C 19.570313 22.367188 17.335938 22.367188 15.9375 20.96875 L 11.03125 16.0625 C 9.632813 14.664063 9.632813 12.429688 11.03125 11.03125 C 11.152344 10.90625 11.300781 10.820313 11.4375 10.71875 C 11.839844 10.472656 12.015625 9.976563 11.855469 9.53125 C 11.699219 9.085938 11.25 8.8125 10.78125 8.875 Z"/>
</svg>
