<svg xmlns="http://www.w3.org/2000/svg" viewBox="0 0 50 50" width="{{ .width }}" height="{{ .height }}"><path fill="currentColor" d="M 16.96875 4.972656 C 15.867188 4.988281 14.984375 5.894531 15 7 L 15 15 L 7 15 C 6.277344 14.988281 5.609375 15.367188 5.246094 15.992188 C 4.878906 16.613281 4.878906 17.386719 5.246094 18.007813 C 5.609375 18.632813 6.277344 19.011719 7 19 L 19 19 L 19 7 C 19.007813 6.460938 18.796875 5.941406 18.414063 5.558594 C 18.03125 5.175781 17.511719 4.964844 16.96875 4.972656 Z M 32.96875 4.972656 C 31.921875 4.988281 31.0625 5.8125 31.003906 6.859375 C 31 6.90625 31 6.953125 31 7 L 31 19 L 43 19 C 43.066406 19 43.132813 19 43.199219 18.992188 C 44.269531 18.894531 45.070313 17.972656 45.015625 16.902344 C 44.964844 15.828125 44.074219 14.988281 43 15 L 35 15 L 35 7 C 35.007813 6.460938 34.796875 5.941406 34.414063 5.558594 C 34.03125 5.175781 33.511719 4.964844 32.96875 4.972656 Z M 7 31 C 6.277344 30.988281 5.609375 31.367188 5.246094 31.992188 C 4.878906 32.613281 4.878906 33.386719 5.246094 34.007813 C 5.609375 34.632813 6.277344 35.011719 7 35 L 15 35 L 15 43 C 14.988281 43.722656 15.367188 44.390625 15.992188 44.753906 C 16.613281 45.121094 17.386719 45.121094 18.007813 44.753906 C 18.632813 44.390625 19.011719 43.722656 19 43 L 19 31 Z M 31 31 L 31 43 C 30.988281 43.722656 31.367188 44.390625 31.992188 44.753906 C 32.613281 45.121094 33.386719 45.121094 34.007813 44.753906 C 34.632813 44.390625 35.011719 43.722656 35 43 L 35 35 L 43 35 C 43.722656 35.011719 44.390625 34.632813 44.753906 34.007813 C 45.121094 33.386719 45.121094 32.613281 44.753906 31.992188 C 44.390625 31.367188 43.722656 30.988281 43 31 Z"/></svg>