<svg fill="currentColor" xmlns="http://www.w3.org/2000/svg" viewBox="0 0 24 24" width="{{ .width }}" height="{{ .height }}">    <path d="M 5 3 C 3.897 3 3 3.897 3 5 L 3 19 C 3 20.103 3.897 21 5 21 L 12.779297 21 C 11.753297 19.862 11.753297 18.138 12.779297 17 L 5 17 L 5 7 L 19 7 L 19.001953 12 C 19.719953 12 20.431 12.266297 21 12.779297 L 21 5 C 21 3.897 20.103 3 19 3 L 5 3 z M 19 14 C 18.74425 14 18.488469 14.097469 18.292969 14.292969 L 17.585938 15 L 16 15 C 15.448 15 15 15.448 15 16 L 15 17.585938 L 14.292969 18.292969 C 13.901969 18.683969 13.901969 19.316031 14.292969 19.707031 L 15 20.414062 L 15 22 C 15 22.552 15.448 23 16 23 L 17.585938 23 L 18.292969 23.707031 C 18.487969 23.902031 18.744 24 19 24 C 19.256 24 19.512031 23.902031 19.707031 23.707031 L 20.414062 23 L 22 23 C 22.552 23 23 22.552 23 22 L 23 20.414062 L 23.707031 19.707031 C 24.098031 19.316031 24.098031 18.683969 23.707031 18.292969 L 23 17.585938 L 23 16 C 23 15.448 22.552 15 22 15 L 20.414062 15 L 19.707031 14.292969 C 19.511531 14.097469 19.25575 14 19 14 z"/></svg>