<svg xmlns="http://www.w3.org/2000/svg" xmlns:xlink="http://www.w3.org/1999/xlink" width="{{ .width }}" height="{{ .height }}" viewBox="0 0 24 24" version="1.1">
<path style=" stroke:none;fill-rule:nonzero;fill:rgb(100,100,100);fill-opacity:1;" d="M 3 3 C 1.90625 3 1 3.90625 1 5 L 1 18 L 3 18 L 3 5 L 19 5 L 19 3 Z M 7 7 C 5.90625 7 5 7.90625 5 9 L 5 19 C 5 20.09375 5.90625 21 7 21 L 14 21 L 14 19 L 7 19 L 7 11.628906 L 14 16 L 21 11.628906 L 21 14 L 23 14 L 23 9 C 23 7.90625 22.09375 7 21 7 Z M 7 9 L 21 9 L 21 9.625 L 14 14 L 7 9.625 Z M 19 16 L 19 19 L 16 19 L 16 21 L 19 21 L 19 24 L 21 24 L 21 21 L 24 21 L 24 19 L 21 19 L 21 16 Z M 19 16 "/>
</svg>
