<svg fill="currentColor" xmlns="http://www.w3.org/2000/svg" viewBox="0 0 24 24" width="{{ .width }}" height="{{ .height }}"><path d="M 7 3 C 5.895 3 5 3.895 5 5 L 19 5 C 19 3.895 18.105 3 17 3 L 7 3 z M 4 7 C 2.895 7 2 7.895 2 9 L 2 19 C 2 20.105 2.895 21 4 21 L 20 21 C 21.105 21 22 20.105 22 19 L 22 9 C 22 7.895 21.105 7 20 7 L 4 7 z M 10.164062 10.765625 C 10.337219 10.764734 10.515141 10.808203 10.681641 10.908203 L 14.404297 13.142578 C 15.051297 13.530578 15.051297 14.469422 14.404297 14.857422 L 10.681641 17.091797 C 10.015641 17.490797 9.1679688 17.011375 9.1679688 16.234375 L 9.1679688 11.765625 C 9.1679688 11.182875 9.6445938 10.768297 10.164062 10.765625 z"/></svg>