<svg fill="#000000" xmlns="http://www.w3.org/2000/svg" viewBox="0 0 24 24" width="{{ .width }}" height="{{ .height }}"><path fill="currentColor" d="M11.705 9.681l-.03.247c-.035.288-.3.484-.585.439-.47-.081-1.135-.151-1.64-.151-.765 0-1.16.267-1.19.56-.035.368.365.389 1.355.681 1.345.378 1.935.913 1.855 1.741C11.38 14.172 10.31 15 8.165 15c-.655 0-1.24-.096-1.675-.222-.24-.066-.395-.293-.37-.545l.035-.288c.045-.232.25-.404.49-.404.035 0 .065.005.095.01.01 0 1.057.237 1.61.202.808-.051 1.26-.247 1.3-.636.03-.353-.3-.404-1.22-.646-1.265-.343-2.075-.878-1.995-1.731C6.53 9.752 7.72 9 9.555 9 10.2 9 10.83 9.035 11.3 9.121 11.56 9.167 11.74 9.414 11.705 9.681zM18.79 9.814c.019-.223.184-.409.404-.45 4.533-.849 4.929.926 4.782 2.502l-.241 2.54c-.024.257-.24.453-.498.453h-.546c-.295 0-.526-.254-.498-.547l.207-2.182c.056-.601.405-1.776-1.281-1.732-.186.005-.343.017-.469.032-.235.027-.414.218-.433.455-.021.255-.05.595-.083.88l-.251 2.642c-.024.257-.24.453-.498.453h-.514c-.296 0-.527-.255-.498-.549l.247-2.501L18.79 9.814zM17.115 9.846c-.615-.5-1.611-.696-2.84-.735-.531-.017-1.087.024-1.265.05-.192.029-.345.19-.385.38-.01.035-.015.07-.015.11l-.43 4.635c-.03.275.17.52.44.545.425.045.91.065 1.41.065 1.205 0 2.005-.18 2.64-.59.695-.44 1.17-1.15 1.265-2.16C18.035 11.056 17.665 10.306 17.115 9.846zM16.435 12.106c-.085.935-.955 1.605-2.185 1.605-.305 0-.46-.025-.58-.05l.3-3.355c.125-.025.36-.025.525-.025C15.795 10.271 16.565 10.746 16.435 12.106zM5.367 14.461c-.021.227-.19.41-.415.448C4.623 14.966 4.163 15 3.595 15c-2.427 0-3.737-1.254-3.583-2.913C.198 10.112 2.139 9 4.264 9c.559 0 .961.034 1.304.093.259.045.437.286.408.547L5.941 9.965c-.031.283-.292.487-.573.439-.326-.055-.724-.093-1.071-.093-1.25 0-2.312.41-2.434 1.707-.109 1.16.637 1.714 2.044 1.714.271 0 .614-.024.922-.064.318-.041.592.222.562.541L5.367 14.461z"/></svg>