<svg fill="#000000" xmlns="http://www.w3.org/2000/svg" viewBox="0 0 24 24" width="{{ .width }}" height="{{ .height }}"><path fill="currentColor" d="M 5 4 A 1.0001 1.0001 0 1 0 5 6 L 19 6 A 1.0001 1.0001 0 1 0 19 4 L 5 4 z M 7 8 C 5.9069372 8 5 8.9069372 5 10 L 5 13 C 5 14.093063 5.9069372 15 7 15 L 7.3242188 15 L 8.5234375 18 L 5 18 A 1.0001 1.0001 0 1 0 5 20 L 19 20 A 1.0001 1.0001 0 1 0 19 18 L 15.476562 18 L 16.675781 15 L 17 15 C 18.093063 15 19 14.093063 19 13 L 19 10 C 19 8.9069372 18.093063 8 17 8 L 7 8 z M 7 10 L 17 10 L 17 13 L 7 13 L 7 10 z M 9.4765625 15 L 14.523438 15 L 13.324219 18 L 10.675781 18 L 9.4765625 15 z"/></svg>