<svg fill="currentColor" xmlns="http://www.w3.org/2000/svg" viewBox="0 0 50 50" width="{{ .width }}" height="{{ .height }}"><path d="M 25 2 C 12.309534 2 2 12.309534 2 25 C 2 37.690466 12.309534 48 25 48 C 37.690466 48 48 37.690466 48 25 C 48 12.309534 37.690466 2 25 2 z M 25 4 C 36.609534 4 46 13.390466 46 25 C 46 36.609534 36.609534 46 25 46 C 13.390466 46 4 36.609534 4 25 C 4 13.390466 13.390466 4 25 4 z M 21 11 L 11 20 L 17.78125 20 C 17.80125 22.847 19.967531 25.730469 23.769531 25.730469 C 24.129531 25.730469 24.529688 25.690391 24.929688 25.650391 C 24.749688 26.100391 24.560547 26.470078 24.560547 27.080078 C 24.560547 28.230078 25.140391 28.920078 25.650391 29.580078 C 24.020391 29.690078 20.989766 29.879531 18.759766 31.269531 C 16.629766 32.559531 15.980469 34.43 15.980469 35.75 C 15.980469 38.47 18.500469 41 23.730469 41 C 29.930469 41 33.220703 37.510547 33.220703 34.060547 C 33.220703 31.530547 31.779453 30.279922 30.189453 28.919922 L 28.900391 27.890625 C 28.500391 27.570625 27.949219 27.120312 27.949219 26.320312 C 27.949219 25.510313 28.500703 24.989766 28.970703 24.509766 C 30.480703 23.309766 32 21.960234 32 19.240234 C 32 18.197234 31.756203 17.348391 31.408203 16.650391 L 35 13.570312 L 35 17.277344 C 34.405 17.623344 34 18.261 34 19 L 34 25 C 34 26.104 34.896 27 36 27 C 37.104 27 38 26.104 38 25 L 38 19 C 38 18.262 37.595 17.624344 37 17.277344 L 37 12 C 37 11.957 36.980609 11.920906 36.974609 11.878906 L 38 11 L 21 11 z M 24.269531 14.240234 C 27.269531 14.240234 28.820312 18.35 28.820312 21 C 28.820312 21.65 28.739922 22.819922 27.919922 23.669922 C 27.339922 24.259922 26.370938 24.699219 25.460938 24.699219 C 22.370938 24.699219 20.949219 20.620156 20.949219 18.160156 C 20.949219 17.210156 21.14 16.220938 21.75 15.460938 C 22.33 14.710938 23.339531 14.240234 24.269531 14.240234 z M 26.039062 30.609375 C 26.409063 30.609375 26.590859 30.610391 26.880859 30.650391 C 29.620859 32.630391 30.800781 33.620234 30.800781 35.490234 C 30.800781 37.760234 28.97 39.460938 25.5 39.460938 C 21.64 39.460938 19.160156 37.590469 19.160156 34.980469 C 19.160156 32.370469 21.459766 31.499219 22.259766 31.199219 C 23.769766 30.679219 25.719062 30.609375 26.039062 30.609375 z"/></svg>