<svg xmlns="http://www.w3.org/2000/svg" viewBox="0 0 48 48" width="{{ .width }}" height="{{ .height }}"><path fill="#f4511e" d="M42,37c0,2.762-2.239,5-5,5H11c-2.762,0-5-2.238-5-5V11c0-2.762,2.238-5,5-5h26c2.761,0,5,2.238,5,5 V37z"/><path fill="#fff" fill-rule="evenodd" d="M34 19H36V27H34z" clip-rule="evenodd"/><path fill="#fff" fill-rule="evenodd" d="M34 19H36V27H34z" clip-rule="evenodd" transform="rotate(90 35 23)"/><path fill="#fff" fill-rule="evenodd" d="M27.815,22.2L27.765,22H19v3h5.91c-0.477,2.837-2.938,5-5.91,5 c-3.314,0-6-2.686-6-6s2.686-6,6-6c1.5,0,2.868,0.554,3.92,1.465l2.151-2.106C23.471,15.894,21.34,15,19,15c-4.971,0-9,4.029-9,9 c0,4.971,4.029,9,9,9c4.971,0,9-4.029,9-9C28,23.383,27.934,22.782,27.815,22.2z" clip-rule="evenodd"/></svg>