<svg fill="#000000" xmlns="http://www.w3.org/2000/svg" viewBox="0 0 24 24" width="{{ .width }}" height="{{ .height }}"><path fill="currentColor" d="M 6.8886719 1 C 6.4046719 1 6.0053906 1.3483125 5.9003906 1.8203125 C 5.6373906 2.9983125 4.7908438 5.0488437 2.5898438 6.0898438 C 2.2388438 6.2558437 2 6.5914688 2 6.9804688 L 2 7.0253906 C 2 7.6933906 2.6699687 8.1785 3.2929688 7.9375 C 3.7418759 7.7640455 4.1405134 7.5528964 4.5117188 7.3242188 A 1.0001 1.0001 0 0 0 4.7910156 8.2363281 C 4.7910156 8.2363281 5 8.3770193 5 9 A 1.0001 1.0001 0 1 0 7 9 C 7 7.6889807 6.2109375 6.8261719 6.2109375 6.8261719 A 1.0001 1.0001 0 0 0 5.5605469 6.5253906 C 6.0753568 6.0530628 6.4913817 5.5365138 6.8203125 5 L 7.3105469 5 C 7.623843 5.4287314 7.8943972 5.9150433 8.0332031 6.3222656 C 8.1712031 6.7272656 8.5554219 6.9921875 8.9824219 6.9921875 C 9.6734219 6.9921875 10.152453 6.3171562 9.9394531 5.6601562 C 9.869187 5.442609 9.7517566 5.2213533 9.6210938 5 L 11 5 C 11.552 5 12 4.552 12 4 C 12 3.448 11.552 3 11 3 L 7.703125 3 C 7.7849123 2.711735 7.8509558 2.4314303 7.8964844 2.1699219 C 8.0024844 1.5569219 7.5223906 1 6.9003906 1 L 6.8886719 1 z M 16.888672 1 C 16.404672 1 16.005391 1.3483125 15.900391 1.8203125 C 15.638391 2.9983125 14.790844 5.0488437 12.589844 6.0898438 C 12.238844 6.2558437 12 6.5914688 12 6.9804688 L 12 7.0253906 C 12 7.6933906 12.669969 8.1785 13.292969 7.9375 C 14.996474 7.2792779 16.101927 6.1717473 16.820312 5 L 17.310547 5 C 17.623843 5.4287314 17.894397 5.9150433 18.033203 6.3222656 C 18.171203 6.7272656 18.555422 6.9921875 18.982422 6.9921875 C 19.673422 6.9921875 20.152453 6.3171562 19.939453 5.6601562 C 19.869187 5.442609 19.751757 5.2213533 19.621094 5 L 21 5 C 21.552 5 22 4.552 22 4 C 22 3.448 21.552 3 21 3 L 17.703125 3 C 17.784912 2.711735 17.850956 2.4314303 17.896484 2.1699219 C 18.002484 1.5569219 17.522391 1 16.900391 1 L 16.888672 1 z M 9 8 A 1.0001 1.0001 0 1 0 9 10 L 18 10 L 18 19 C 18 19.56503 17.56503 20 17 20 L 16 20 A 1.0001 1.0001 0 1 0 16 22 L 17 22 C 18.64497 22 20 20.64497 20 19 L 20 9 A 1.0001 1.0001 0 0 0 19 8 L 9 8 z M 4.984375 10.986328 A 1.0001 1.0001 0 0 0 4 12 L 4 21 A 1.0001 1.0001 0 1 0 6 21 L 6 12 A 1.0001 1.0001 0 0 0 4.984375 10.986328 z M 9 12 A 1.0001 1.0001 0 0 0 8 13 L 8 19 A 1.0001 1.0001 0 0 0 9 20 L 13 20 C 14.64497 20 16 18.64497 16 17 L 16 16.167969 A 1.0001 1.0001 0 0 0 16 15.841797 L 16 13 A 1.0001 1.0001 0 0 0 15 12 L 9 12 z M 10 14 L 14 14 L 14 15 L 10 15 L 10 14 z M 10 17 L 14 17 C 14 17.56503 13.56503 18 13 18 L 10 18 L 10 17 z"/></svg>