<svg fill="currentColor" xmlns="http://www.w3.org/2000/svg" viewBox="0 0 24 24" width="{{ .width }}" height="{{ .height }}"><path d="M 3 4 L 3 20 L 6 20 L 6 18 L 5 18 L 5 6 L 6 6 L 6 4 L 3 4 z M 18 4 L 18 6 L 19 6 L 19 18 L 18 18 L 18 20 L 21 20 L 21 4 L 18 4 z M 14.751953 8.4238281 C 14.253244 8.4137617 13.749578 8.5373281 13.345703 8.8144531 C 13.085703 8.9934531 12.862469 9.2224063 12.605469 9.4414062 C 12.214469 8.6644063 11.508172 8.4573594 10.701172 8.4433594 C 9.8831719 8.4303594 9.2496406 8.8005156 8.6816406 9.4785156 L 8.6816406 8.640625 L 7 8.640625 L 7 14.988281 L 8.7871094 14.988281 C 8.7871094 14.988281 8.7840625 12.608594 8.7890625 11.433594 C 8.7900625 11.224594 8.80075 11.011641 8.84375 10.806641 C 8.97575 10.178641 9.5142031 9.79175 10.158203 9.84375 C 10.771203 9.89375 11.050078 10.227172 11.080078 10.951172 C 11.085078 11.077172 11.087891 14.984375 11.087891 14.984375 L 12.898438 14.984375 C 12.898437 14.984375 12.891344 12.512891 12.902344 11.462891 C 12.905344 11.191891 12.932047 10.914344 12.998047 10.652344 C 13.146047 10.064344 13.623484 9.7766563 14.271484 9.8476562 C 14.843484 9.9096562 15.129875 10.225656 15.171875 10.847656 L 15.171875 15 L 16.974609 15 C 16.974609 15 17.003609 11.880438 16.974609 10.398438 C 16.968609 10.095438 16.871375 9.7710938 16.734375 9.4960938 C 16.401875 8.8292188 15.583135 8.4406055 14.751953 8.4238281 z"/></svg>