<svg xmlns="http://www.w3.org/2000/svg" xmlns:xlink="http://www.w3.org/1999/xlink" width="{{ .width }}" height="{{ .height }}" viewBox="0 0 24 24" version="1.1">
<g id="surface94">
<path fill="currentColor" d="M 12 2 C 6.476562 2 2 6.476562 2 12 C 2 16.238281 4.636719 19.855469 8.355469 21.3125 C 8.269531 20.519531 8.1875 19.308594 8.390625 18.445312 C 8.574219 17.664062 9.5625 13.472656 9.5625 13.472656 C 9.5625 13.472656 9.265625 12.875 9.265625 11.988281 C 9.265625 10.597656 10.070312 9.5625 11.074219 9.5625 C 11.925781 9.5625 12.339844 10.203125 12.339844 10.96875 C 12.339844 11.828125 11.792969 13.109375 11.511719 14.296875 C 11.273438 15.292969 12.007812 16.105469 12.992188 16.105469 C 14.769531 16.105469 16.132812 14.230469 16.132812 11.527344 C 16.132812 9.132812 14.414062 7.457031 11.957031 7.457031 C 9.113281 7.457031 7.441406 9.59375 7.441406 11.796875 C 7.441406 12.65625 7.773438 13.578125 8.1875 14.078125 C 8.269531 14.179688 8.277344 14.265625 8.253906 14.367188 C 8.179688 14.683594 8.011719 15.363281 7.976562 15.5 C 7.933594 15.683594 7.832031 15.722656 7.644531 15.632812 C 6.394531 15.050781 5.613281 13.226562 5.613281 11.761719 C 5.613281 8.605469 7.90625 5.707031 12.222656 5.707031 C 15.691406 5.707031 18.386719 8.179688 18.386719 11.484375 C 18.386719 14.929688 16.214844 17.703125 13.199219 17.703125 C 12.183594 17.703125 11.230469 17.175781 10.90625 16.554688 C 10.90625 16.554688 10.402344 18.464844 10.28125 18.933594 C 10.058594 19.800781 9.449219 20.890625 9.039062 21.554688 C 9.976562 21.84375 10.96875 22 12 22 C 17.523438 22 22 17.523438 22 12 C 22 6.476562 17.523438 2 12 2 Z M 12 2 "/>
</g>
</svg>
