<svg fill="currentColor" xmlns="http://www.w3.org/2000/svg" viewBox="0 0 24 24" width="{{ .width }}" height="{{ .height }}"><path d="M5.904 22.827L5.576 21.303 6.553 21.092 6.646 21.522 7.064 21.382 7.383 22.329zM5.136 19.262l-.44-2.041.977-.211.44 2.041L5.136 19.262zM3.725 15.604c-.386-.631-.695-1.305-.918-2.003l.953-.305c.198.622.474 1.223.818 1.785L3.725 15.604zM9.396 21.651l-.32-.947 1.979-.667.32.947L9.396 21.651zM13.237 20.387l-.068-.998c.66-.045 1.316-.158 1.951-.337l.271.963C14.69 20.212 13.966 20.337 13.237 20.387zM17.424 19.203l-.467-.885c.588-.311 1.139-.683 1.639-1.104l.645.764C18.687 18.446 18.075 18.858 17.424 19.203zM20.75 16.386l-.799-.602c.399-.529.733-1.1.993-1.696l.916.4C21.569 15.155 21.196 15.794 20.75 16.386zM22.491 12.378l-.986-.17c.076-.44.114-.895.114-1.35-.001-.204-.008-.407-.023-.609l.998-.072c.016.224.024.45.025.68C22.619 11.37 22.576 11.881 22.491 12.378zM2.398 11.425c-.012-.188-.018-.377-.018-.566 0-.548.05-1.097.147-1.632l.984.18c-.088.477-.132.965-.132 1.452 0 .17.006.338.016.506L2.398 11.425zM21.212 8.329c-.204-.617-.485-1.215-.835-1.776l.848-.529c.393.629.707 1.299.937 1.991L21.212 8.329zM4.098 7.535L3.187 7.123c.3-.664.682-1.298 1.134-1.884l.791.611C4.707 6.375 4.365 6.941 4.098 7.535zM19.149 5.013c-.462-.463-.98-.878-1.541-1.235l.537-.844c.623.396 1.198.858 1.711 1.372L19.149 5.013zM6.484 4.436L5.848 3.664C6.41 3.201 7.025 2.796 7.679 2.461L8.136 3.35C7.547 3.653 6.99 4.019 6.484 4.436zM15.836 2.898c-.617-.229-1.263-.394-1.919-.49l.146-.99c.725.107 1.438.29 2.12.543L15.836 2.898zM9.981 2.636l-.26-.965c.701-.189 1.428-.307 2.157-.349l.059.998C11.275 2.358 10.617 2.465 9.981 2.636zM8.177 19.543L7.426 15.782C5.891 14.493 5.018 12.708 5.018 10.83c0-3.742 3.358-6.786 7.486-6.786 4.128 0 7.486 3.044 7.486 6.786 0 3.741-3.358 6.785-7.486 6.785-.146 0-.287-.013-.427-.028zM12.504 6.044c-3.025 0-5.486 2.147-5.486 4.786 0 1.367.7 2.68 1.92 3.601l.304.229.383 1.921 2.07-1.039.279.022c.087.008.172.018.258.027.09.012.179.024.272.024 3.025 0 5.486-2.146 5.486-4.785 0-2.639-2.461-4.786-5.486-4.786z"/></svg>