<svg xmlns="http://www.w3.org/2000/svg" viewBox="0 0 48 48" width="{{ .width }}" height="{{ .height }}"><path fill="#4FC3F7" d="M6 13L6 20 31.2 20 37.6 13z"/><path fill="#039BE5" d="M6 22L6 29 23.1 29 29.4 22z"/><path fill="#0277BD" d="M6,31v2c0,3.3,2.7,6,6,6h2l7.3-8H6z"/><path fill="#039BE5" d="M42 13L37.6 13 31.2 20 42 20z"/><path fill="#0288D1" d="M42 22L29.4 22 23.1 29 42 29z"/><path fill="#01579B" d="M21.3,31L14,39h13v7l7-7h2c3.3,0,6-2.7,6-6v-2H21.3z"/><path fill="#81D4FA" d="M42,11V9c0-0.3,0-0.6-0.1-0.8c0,0,0,0,0,0L39.4,11h0H42z"/><path fill="#B3E5FC" d="M36,3H12C8.7,3,6,5.7,6,9v2h33.4l2.6-2.8C41.5,5.3,39,3,36,3z"/></svg>