<svg fill="#000000" xmlns="http://www.w3.org/2000/svg" viewBox="0 0 30 30" width="{{ .width }}" height="{{ .height }}"><path fill="currentColor" d="M 6 4 C 4.895 4 4 4.895 4 6 L 4 17.326172 L 6.5351562 18.017578 C 7.1301562 16.988578 8.1675781 16.247547 9.3925781 16.060547 L 12.066406 12.851562 C 12.027406 12.572563 12 12.29 12 12 C 12 8.686 14.686 6 18 6 C 21.314 6 24 8.686 24 12 C 24 15.314 21.314 18 18 18 C 17.71 18 17.427437 17.972594 17.148438 17.933594 L 13.939453 20.607422 C 13.645453 22.526422 12.001 24 10 24 C 7.791 24 6 22.209 6 20 C 6 19.982 6.0058594 19.965266 6.0058594 19.947266 L 4 19.400391 L 4 24 C 4 25.105 4.895 26 6 26 L 24 26 C 25.105 26 26 25.105 26 24 L 26 6 C 26 4.895 25.105 4 24 4 L 6 4 z M 18 8 C 15.802706 8 14 9.8027056 14 12 C 14 14.197294 15.802706 16 18 16 C 20.197294 16 22 14.197294 22 12 C 22 9.8027056 20.197294 8 18 8 z M 18 10 C 19.116414 10 20 10.883586 20 12 C 20 13.116414 19.116414 14 18 14 C 16.883586 14 16 13.116414 16 12 C 16 10.883586 16.883586 10 18 10 z M 10 17.5 C 9.215 17.5 8.5224531 17.868547 8.0644531 18.435547 L 10.263672 19.035156 C 10.796672 19.181156 11.111797 19.730672 10.966797 20.263672 C 10.843797 20.707672 10.44 21 10 21 C 9.913 21 9.8253281 20.988844 9.7363281 20.964844 L 7.5351562 20.365234 C 7.7141562 21.571234 8.744 22.5 10 22.5 C 11.381 22.5 12.5 21.381 12.5 20 C 12.5 18.619 11.381 17.5 10 17.5 z"/></svg>