<svg xmlns="http://www.w3.org/2000/svg" width="{{ .width }}" height="{{ .height }}" viewBox="4.581 3.818 503.377 504.14"><path fill="currentColor" d="M80.034 4.42C70.279 5.496 59.284 9 49.638 14.012c-22.69 11.965-39.56 35.247-44.033 60.9-.97 5.444-1.024 12.774-1.024 182.165v176.505l1.24 5.497c7.76 35.086 32.552 59.878 67.638 67.638l5.497 1.24h354.628l5.497-1.24c35.085-7.76 59.877-32.552 67.638-67.638l1.239-5.497V257.078c0-169.391-.054-176.721-1.024-182.164-1.347-7.87-4.042-15.791-8.138-23.983-12.773-25.708-38.427-43.494-67.206-46.62-6.576-.7-345.197-.646-351.556.108zm192.565 89.626c18.54 2.318 33.523 6.791 49.961 14.821 16.168 7.923 26.516 15.414 40.205 29.05 12.827 12.88 19.942 22.636 27.487 37.78 10.51 21.127 16.492 46.241 17.515 73.89.378 9.43.109 11.533-2.048 14.227-4.095 5.229-13.096 4.366-16.168-1.508-.97-1.94-1.24-3.61-1.563-11.157-.54-11.587-1.347-19.078-2.964-28.025-6.36-35.085-23.175-63.11-50.015-83.213-22.366-16.815-45.487-25.008-75.775-26.786-10.24-.593-12.019-.97-14.336-2.748-4.312-3.396-4.527-11.372-.378-15.09 2.533-2.319 4.312-2.642 13.097-2.372 4.581.161 11.317.7 14.982 1.132zm-123.203 5.821c1.887.647 4.797 2.156 6.468 3.234 10.24 6.79 38.75 43.277 48.074 61.494 5.335 10.401 7.114 18.108 5.444 23.821-1.726 6.144-4.581 9.378-17.355 19.672-5.12 4.15-9.917 8.407-10.67 9.539-1.941 2.803-3.505 8.3-3.505 12.18.055 9 5.875 25.33 13.529 37.888 5.927 9.755 16.545 22.258 27.054 31.852 12.342 11.318 23.229 19.024 35.517 25.115 15.791 7.868 25.439 9.863 32.499 6.575 1.778-.808 3.664-1.886 4.258-2.37.538-.486 4.688-5.552 9.216-11.157 8.73-10.995 10.724-12.773 16.707-14.821 7.6-2.587 15.36-1.887 23.174 2.101 5.929 3.073 18.864 11.103 27.217 16.923 10.994 7.707 34.492 26.894 37.673 30.721 5.605 6.898 6.575 15.736 2.802 25.492-3.988 10.293-19.51 29.588-30.343 37.834-9.809 7.438-16.76 10.293-25.923 10.725-7.545.377-10.67-.27-20.318-4.258-75.668-31.205-136.084-77.77-184.051-141.743-25.06-33.415-44.14-68.069-57.183-104.017-7.598-20.965-7.975-30.073-1.724-40.798 2.695-4.527 14.175-15.737 22.528-21.989 13.905-10.348 20.319-14.175 25.439-15.252 3.503-.755 9.592-.162 13.473 1.24zm126.922 33.253c32.715 4.796 58.045 19.995 74.645 44.679 9.324 13.905 15.144 30.235 17.138 47.75.7 6.414.7 18.11-.053 20.05-.702 1.832-2.965 4.311-4.906 5.335-2.101 1.078-6.574.97-9.053-.324-4.15-2.101-5.39-5.443-5.39-14.497 0-13.959-3.611-28.672-9.862-40.098-7.115-13.042-17.462-23.821-30.073-31.313-10.833-6.467-26.84-11.264-41.446-12.45-5.282-.43-8.192-1.508-10.186-3.826-3.072-3.503-3.396-8.246-.809-12.18 2.803-4.366 7.114-5.066 19.995-3.126zm11.48 40.69c10.617 2.264 18.756 6.306 25.708 12.828 8.946 8.46 13.851 18.7 16.006 33.414 1.456 9.593.863 13.366-2.533 16.492-3.18 2.91-9.053 3.018-12.611.27-2.587-1.941-3.395-3.989-3.988-9.54-.7-7.384-1.994-12.557-4.203-17.354-4.744-10.186-13.097-15.468-27.217-17.193-6.63-.808-8.624-1.563-10.78-4.095-3.934-4.69-2.425-12.288 3.018-15.091 2.049-1.024 2.911-1.132 7.438-.862 2.802.161 6.953.646 9.162 1.131z"/></svg>