<svg fill="currentColor" xmlns="http://www.w3.org/2000/svg" viewBox="0 0 24 24" width="{{ .width }}" height="{{ .height }}"><path d="M 2 4 C 2 12.533 12 20 17 20 L 17 18.933594 C 8 17.866594 8 6.1328125 8 6.1328125 L 2 4 z M 22 4 L 16 6.1308594 C 16 6.1308594 15.999219 12.139219 12.699219 15.949219 C 13.139219 16.359219 13.629687 16.719531 14.179688 17.019531 C 18.239688 14.069531 22 9.23 22 4 z M 9.7207031 18.189453 C 8.9207031 18.549453 8.02 18.809687 7 18.929688 L 7 20 C 8.12 20 9.4796875 19.629219 10.929688 18.949219 C 10.519688 18.709219 10.120703 18.459453 9.7207031 18.189453 z"/></svg>