<svg fill="#000000" xmlns="http://www.w3.org/2000/svg" viewBox="0 0 24 24" width="{{ .width }}" height="{{ .height }}"><path fill="currentColor" d="M 5.921875 2.9511719 C 5.5336094 2.9815469 5.1832344 3.2390625 5.0527344 3.6328125 L 3.6835938 7.7363281 C 3.5085938 8.2593281 3.7924062 8.825 4.3164062 9 C 4.8404063 9.175 5.4050781 8.8911875 5.5800781 8.3671875 L 6.0351562 7 L 6.9941406 7 L 6.9941406 10.222656 C 6.9941406 10.845846 6.9644144 11.431442 6.9199219 12 L 5 12 A 1.0001 1.0001 0 1 0 5 14 L 6.6367188 14 C 6.1575971 16.260332 5.1601574 17.989071 3.4179688 19.189453 C 2.9979688 19.479453 2.8798125 20.049188 3.1328125 20.492188 C 3.4258125 21.004188 4.0960781 21.153359 4.5800781 20.818359 C 6.0994455 19.769009 7.1700075 18.397613 7.8808594 16.720703 A 1.0001 1.0001 0 0 0 8.0449219 17.601562 L 9.5117188 19.59375 A 1.0002375 1.0002375 0 1 0 11.123047 18.408203 L 9.65625 16.416016 A 1.0001 1.0001 0 0 0 8.7929688 15.998047 A 1.0001 1.0001 0 0 0 7.9921875 16.472656 C 8.2917972 15.713486 8.5082238 14.883111 8.6699219 14 L 10 14 A 1.0001 1.0001 0 1 0 10 12 L 8.9316406 12 C 8.9726972 11.4285 8.9941406 10.836947 8.9941406 10.222656 L 8.9941406 7 L 10 7 A 1.0001 1.0001 0 1 0 10 5 L 6.7011719 5 L 6.9472656 4.2636719 C 7.1222656 3.7406719 6.8404063 3.175 6.3164062 3 C 6.1856563 2.95625 6.0512969 2.9410469 5.921875 2.9511719 z M 14 5 A 1.0001 1.0001 0 0 0 13 6 L 13 17 A 1.0001 1.0001 0 0 0 14 18 L 15 18 L 15 20 A 1.0001 1.0001 0 0 0 16.707031 20.707031 L 19.414062 18 L 21 18 A 1.0001 1.0001 0 0 0 22 17 L 22 6 A 1.0001 1.0001 0 0 0 21 5 L 14 5 z M 15 7 L 20 7 L 20 16 L 19 16 A 1.0001 1.0001 0 0 0 18.292969 16.292969 L 17 17.585938 L 17 17 A 1.0001 1.0001 0 0 0 16 16 L 15 16 L 15 7 z"/></svg>