<svg data-name="douban" xmlns="http://www.w3.org/2000/svg" viewBox="0 0 24 24" width="{{ .width }}" height="{{ .height }}"><path fill="currentColor" d="M 4 4 A 1.0001 1.0001 0 1 0 4 6 L 20 6 A 1.0001 1.0001 0 1 0 20 4 L 4 4 z M 7 8 C 5.9069372 8 5 8.9069372 5 10 L 5 13 C 5 14.093063 5.9069372 15 7 15 L 7.2792969 15 L 8.6113281 19 L 4 19 A 1.0001 1.0001 0 1 0 4 21 L 20 21 A 1.0001 1.0001 0 1 0 20 19 L 15.388672 19 L 16.720703 15 L 17 15 C 18.093063 15 19 14.093063 19 13 L 19 10 C 19 8.9069372 18.093063 8 17 8 L 7 8 z M 7 10 L 17 10 L 17 13 L 7 13 L 7 10 z M 9.3886719 15 L 14.611328 15 L 13.279297 19 L 10.720703 19 L 9.3886719 15 z"/></svg>