<svg xmlns="http://www.w3.org/2000/svg" viewBox="0 0 48 48" width="{{ .width }}" height="{{ .height }}"><path fill="#FFF" d="M34,29c-0.6-5.8-7.6-9.8-16-8.9c-4.9,0.5-9.4,2.6-11.9,5.6C4.5,27.6,3.8,29.8,4,32c0.5,5.3,6.4,9,13.8,9c0.7,0,1.4,0,2.2-0.1c4.9-0.5,9.4-2.6,11.9-5.6C33.5,33.4,34.2,31.2,34,29z"/><path fill="#D32F2F" d="M19.8,38.9C12.7,39.6,6.5,36.4,6,31.8c-0.5-4.6,5-9,12.1-9.7c7.2-0.7,13.3,2.5,13.8,7.1C32.4,33.9,27,38.2,19.8,38.9 M34.7,23.9c-0.6-0.2-1-0.3-0.7-1.1c0.7-1.7,0.8-3.2,0-4.3c-1.4-2-5.3-1.9-9.7-0.1c0,0-1.4,0.6-1-0.5c0.7-2.2,0.6-4-0.5-5C20.4,10.5,14,13,8.5,18.4C4.4,22.5,2,26.8,2,30.5C2,37.7,11.2,42,20.3,42C32.1,42,40,35.2,40,29.8C40,26.5,37.2,24.7,34.7,23.9"/><path fill="#263238" d="M20.9,30.4c-0.3,0.5-0.9,0.8-1.4,0.6c-0.5-0.2-0.6-0.8-0.4-1.3c0.3-0.5,0.9-0.8,1.3-0.5C21,29.3,21.1,29.8,20.9,30.4 M17.6,32.8c-0.7,1-2.3,1.5-3.5,1c-1.2-0.5-1.5-1.7-0.8-2.6c0.7-1,2.2-1.4,3.4-1C18,30.6,18.4,31.8,17.6,32.8 M20.5,25.2c-3.5-0.9-7.4,0.8-8.9,3.8c-1.5,3.1-0.1,6.5,3.5,7.6c3.6,1.2,7.9-0.6,9.4-3.9C26,29.5,24.1,26.1,20.5,25.2"/><path fill="#F9A825" d="M43.9 20A1.5 1.5 0 1 0 43.9 23A1.5 1.5 0 1 0 43.9 20Z"/><path fill="#F9A825" d="M45.3,22C45.3,22,45.3,22,45.3,22c-0.2,0.6-0.8,1-1.4,1c-0.8,0-1.5-0.7-1.5-1.5c0-0.2,0-0.4,0.1-0.6C42.8,20,43,19,43,18c0-5-4-9-9-9c-0.4,0-0.9,0-1.3,0.1c0,0,0,0-0.1,0c0,0-0.1,0-0.1,0c-0.8,0-1.5-0.7-1.5-1.5s0.7-1.5,1.5-1.5c0,0,0,0,0,0C33,6,33.5,6,34,6c6.6,0,12,5.4,12,12C46,19.4,45.8,20.7,45.3,22z M40,18c0-3.3-2.7-6-6-6c-0.2,0-0.4,0-0.7,0c0,0,0,0-0.1,0c-0.7,0.1-1.3,0.7-1.3,1.5c0,0.8,0.7,1.5,1.5,1.5c0,0,0.1,0,0.1,0c0,0,0,0,0,0c0.1,0,0.3,0,0.4,0c1.7,0,3,1.3,3,3c0,0.3-0.1,0.7-0.2,1c0,0,0,0,0,0c-0.1,0.2-0.1,0.3-0.1,0.5c0,0.8,0.7,1.5,1.5,1.5c0.6,0,1.1-0.4,1.4-0.9c0,0,0,0,0,0c0,0,0-0.1,0-0.1c0-0.1,0-0.1,0.1-0.2C39.9,19.2,40,18.6,40,18z"/></svg>