<svg xmlns="http://www.w3.org/2000/svg" viewBox="0 0 26 26" width="{{ .width }}" height="{{ .height }}"><path fill="currentColor" d="M 12.34375 1.09375 C 12.0625 1.109375 11.8125 1.21875 11.625 1.4375 L 1.28125 12.96875 C 1.066406 13.214844 0.535156 14.113281 0.28125 15.28125 C 0.105469 15.773438 0 16.34375 0 17 C 0 20.101563 2.59375 21.34375 2.59375 21.34375 C 2.632813 21.367188 2.675781 21.386719 2.71875 21.40625 L 14.71875 24.96875 C 15.109375 25.082031 15.53125 24.945313 15.78125 24.625 L 25.5625 12.84375 C 25.804688 12.542969 25.855469 12.128906 25.6875 11.78125 C 25.6875 11.78125 25.308594 10.90625 25.71875 9.90625 C 25.855469 9.574219 25.804688 9.195313 25.585938 8.910156 C 25.367188 8.625 25.011719 8.480469 24.65625 8.53125 C 24.304688 8.585938 24.003906 8.824219 23.875 9.15625 C 23.363281 10.410156 23.511719 11.363281 23.6875 11.96875 L 14.65625 22.84375 L 3.34375 19.5 L 3.28125 19.46875 C 3.09375 19.398438 2 18.90625 2 17 C 2 16.25 2.160156 15.851563 2.3125 15.625 C 2.464844 15.398438 2.625 15.289063 2.84375 15.21875 C 3.0625 15.148438 3.3125 15.148438 3.5 15.15625 L 3.53125 15.15625 L 13.96875 18.15625 C 14.058594 18.179688 14.160156 18.1875 14.25 18.1875 C 14.5625 18.1875 14.863281 18.027344 15.0625 17.78125 L 25.65625 5.5625 C 25.886719 5.28125 25.964844 4.90625 25.84375 4.5625 C 25.726563 4.214844 25.417969 3.953125 25.0625 3.875 L 12.625 1.09375 C 12.53125 1.074219 12.4375 1.089844 12.34375 1.09375 Z M 12.0625 5.0625 C 12.171875 5.058594 12.273438 5.070313 12.375 5.09375 L 19.8125 6.90625 C 20.21875 7.003906 20.375 7.269531 20.15625 7.53125 L 19.34375 8.5 C 19.121094 8.761719 18.597656 8.878906 18.1875 8.78125 L 10.78125 6.96875 C 10.371094 6.871094 10.21875 6.570313 10.4375 6.3125 L 11.21875 5.375 C 11.382813 5.179688 11.734375 5.070313 12.0625 5.0625 Z"/></svg>