<svg xmlns="http://www.w3.org/2000/svg" viewBox="0 0 24 24" width="{{ .width }}" height="{{ .height }}"><path fill="currentColor" d="M 12 2 L 10.021484 3.9121094 L 7.2988281 3.5273438 L 6.8222656 6.2382812 L 4.3925781 7.5273438 L 5.5996094 10 L 4.3925781 12.472656 L 6.8222656 13.761719 L 7.2988281 16.472656 L 10.023438 16.087891 L 12 18 L 13.978516 16.087891 L 16.703125 16.472656 L 17.177734 13.761719 L 19.609375 12.472656 L 18.400391 10 L 19.607422 7.5273438 L 17.177734 6.2382812 L 16.701172 3.5273438 L 13.976562 3.9121094 L 12 2 z M 4.9824219 15.017578 L 1 19 L 4 20 L 5 23 L 9.5898438 18.410156 L 9.34375 18.175781 L 8.1171875 18.347656 C 7.9971875 18.364656 7.8797188 18.373047 7.7617188 18.373047 C 6.5257188 18.373047 5.4727656 17.488484 5.2597656 16.271484 L 5.046875 15.052734 L 4.9824219 15.017578 z M 19.017578 15.017578 L 18.953125 15.052734 L 18.740234 16.271484 C 18.526234 17.489484 17.474281 18.373047 16.238281 18.373047 C 16.120281 18.373047 16.002813 18.364656 15.882812 18.347656 L 14.65625 18.175781 L 14.410156 18.412109 L 19 23 L 20 20 L 23 19 L 19.017578 15.017578 z"/></svg>