<svg xmlns="http://www.w3.org/2000/svg" viewBox="0 0 26 26" width="{{ .width }}" height="{{ .height }}"><path fill="currentColor" d="M 15.3125 4 C 15.011719 4 14.695313 4.199219 14.59375 4.5 L 9 21.3125 C 8.898438 21.710938 9.199219 22 9.5 22 L 10.40625 22 C 10.707031 22 10.992188 21.800781 11.09375 21.5 L 16.6875 4.6875 C 16.789063 4.289063 16.488281 4 16.1875 4 Z M 5.0625 7 C 4.925781 7.023438 4.789063 7.085938 4.6875 7.1875 L 0.09375 12.6875 C -0.0078125 12.886719 -0.0078125 13.113281 0.09375 13.3125 L 4.6875 18.8125 C 4.886719 19.011719 5.199219 19.105469 5.5 18.90625 L 6.09375 18.40625 C 6.292969 18.207031 6.386719 17.792969 6.1875 17.59375 L 2.3125 13 L 6.09375 8.40625 C 6.292969 8.207031 6.300781 7.792969 6 7.59375 L 5.5 7.09375 C 5.351563 6.992188 5.199219 6.976563 5.0625 7 Z M 20.71875 7 C 20.644531 7.015625 20.574219 7.042969 20.5 7.09375 L 19.90625 7.59375 C 19.707031 7.792969 19.613281 8.207031 19.8125 8.40625 L 23.59375 13 L 19.8125 17.59375 C 19.613281 17.792969 19.605469 18.207031 19.90625 18.40625 L 20.5 18.90625 C 20.699219 19.105469 21.113281 19.113281 21.3125 18.8125 L 25.90625 13.3125 C 26.007813 13.113281 26.007813 12.886719 25.90625 12.6875 L 21.3125 7.1875 C 21.164063 7.039063 20.9375 6.953125 20.71875 7 Z"/></svg>