<svg xmlns="http://www.w3.org/2000/svg" viewBox="0 0 16 16" width="{{ .width }}" height="{{ .height }}"><path fill="currentColor" d="M 8 2 C 6.347656 2 5 3.347656 5 5 C 5 6.585938 6.25 7.882813 7.8125 7.984375 C 5.140625 8.078125 2.992188 10.277344 2.992188 12.972656 L 3.992188 12.972656 C 3.992188 10.765625 5.785156 8.972656 7.992188 8.972656 C 9.738281 8.972656 11.210938 10.105469 11.753906 11.671875 L 12.527344 10.894531 C 11.757813 9.222656 10.097656 8.046875 8.15625 7.984375 C 9.734375 7.902344 11 6.597656 11 5 C 11 3.347656 9.652344 2 8 2 Z M 8 3 C 9.109375 3 10 3.890625 10 5 C 10 6.109375 9.109375 7 8 7 C 6.890625 7 6 6.109375 6 5 C 6 3.890625 6.890625 3 8 3 Z M 14.890625 9.976563 L 10.421875 14.441406 L 8.59375 12.621094 L 7.890625 13.328125 L 10.421875 15.859375 L 15.59375 10.6875 Z"/></svg>