<svg xmlns="http://www.w3.org/2000/svg" viewBox="0 0 26 26" width="{{ .width }}" height="{{ .height }}"><path fill="currentColor" d="M 2.71875 11.023438 L 16 10.023438 L 16 6.875 C 16 6.546875 16.160156 6.300781 16.480469 6.054688 C 16.800781 5.972656 17.121094 5.972656 17.359375 6.136719 C 20.640625 8.433594 23.761719 12.28125 23.839844 12.445313 C 23.917969 12.601563 23.992188 12.835938 23.996094 13 C 23.996094 13.003906 24 13.011719 24 13.015625 C 24 13.179688 23.921875 13.425781 23.839844 13.507813 C 23.761719 13.671875 20.71875 17.53125 17.359375 19.828125 C 17.039063 19.992188 16.71875 20.074219 16.480469 19.910156 C 16.160156 19.746094 16 19.5 16 19.171875 L 16 16.023438 L 2.71875 15.023438 C 2.320313 14.703125 2 13.898438 2 13.015625 C 2 12.21875 2.238281 11.34375 2.71875 11.023438 Z"/></svg>