<svg data-name="gmarket" enable-background="new 0 0 106 108" viewBox="0 0 106 108" width="{{ .width }}" height="{{ .height }}" fill="currentColor" xmlns="http://www.w3.org/2000/svg"><path d="m92.625 7.922c6.561 3.8 9.063 7.438 9.063 12.041 0 6.205-5.03 11.234-11.237 11.234-4.004 0-6.51-2.023-10.157-4.158-4.61-2.685-11.08-5.616-19.477-5.616-18.22 0-34.225 12.182-34.225 32.97 0 17.405 14.901 31.61 32.903 31.61 11.538 0 17.728-2.973 21.122-4.832v-15.415h-21.975v-22.818h32.839c8.265 0 14.3 5.248 14.3 13.857h8e-3v28.803c0 5.393-1.012 7.547-5.699 10.51-7.424 4.705-21.252 11.242-41.205 11.242-32.216 0-58.885-22.025-58.885-52.965 0-31.786 24.804-54.385 60.371-54.385 13.165-1e-3 23.825 3.032 32.254 7.922"/><path d="m69.946 54.349c0 6.301-5.106 11.409-11.416 11.409-6.305 0-11.415-5.107-11.415-11.409 0-6.318 5.11-11.423 11.415-11.423 6.311 0 11.416 5.105 11.416 11.423"/></svg>
