<svg data-name="yahoojp" enable-background="new -1 -1 52 52" viewBox="-1 -1 51 26" width="{{ .width }}" height="{{ .height }}" fill="currentColor" xmlns="http://www.w3.org/2000/svg"><path d="m 39.6,4 c -0.7,0.10001 -3.7,0.70001 -4.7,0.89999 -1.1,0.3 -11.3,8.3 -12,10.2 -0.10001,0.60001 0,7.6 0,7.6 l 5.8,0.39999 -0.2,1.9 c -0.8,-0.10001 -6.2,0 -9.6,0 -1.7,0 -6.9,0.20001 -8.7,0.10001 l 0.2,-1.8 C 11.5,23.4 13.2,23.19998 14.2,22.9 15.2,22.60002 16,22.19999 16,21.2 v -6 C 15.60003,14.1 7.1,3.4 4.9,1.7 4.3,1.49998 0,0.99998 -1,0.8 L -0.8,-1 h 19.5 l -0.3,1.7 c -0.89999,0.20001 -5,0.29999 -6.1,0.60001 2.8,4.1 7.2,9.5 8.6,11.5 0.8,-1.1 8.3,-6.4 8.5,-8 C 28.3,4.6 24.8,4.1 24.2,4.1 L 23.9,2.3 h 16.8 z"/><path d="m 36.411,24.683 -2.2025,-0.59015 1.602,-3.587 2.1365,0.79679 2.0992,0.55712 -1.569,3.4837 z m 4.5928,-5.8192 -3.2026,-1.0237 5.3165,-16.633 7.2316,2.3115 -1.4124,2.2813 z"/></svg>
