<svg version="1.2" xmlns="http://www.w3.org/2000/svg" viewBox="0 0 330 330" width="{{ .width }}" height="{{ .height }}"><style>.a{fill:#010202}.b{fill:#ffdd06}</style><path class="a" d="m255.1 77.3l-0.2-0.1-0.5-0.2c0.1 0.2 0.4 0.3 0.7 0.3z"/><path class="a" d="m258.4 100.9l-0.3 0.1z"/><path class="a" d="m255.1 77.2q-0.2 0 0 0z"/><path class="a" d="m258.1 100.7l0.4-0.2 0.1-0.1 0.1-0.1c-0.2 0.1-0.4 0.3-0.6 0.4z"/><path class="a" d="m255.7 77.8l-0.4-0.4-0.3-0.1c0.2 0.2 0.4 0.4 0.7 0.5z"/><path class="a" d="m162 306.2c-0.3 0.1-0.6 0.3-0.8 0.6l0.2-0.2c0.3-0.2 0.5-0.3 0.6-0.4z"/><path class="a" d="m216.5 295.4c0-0.3-0.2-0.3-0.1 0.9 0-0.1 0-0.2 0.1-0.3q-0.2-0.1 0-0.6z"/><path class="a" d="m210.8 306.2c-0.3 0.1-0.6 0.3-0.8 0.6l0.2-0.2c0.3-0.2 0.5-0.3 0.6-0.4z"/><path class="a" d="m123.7 308.7c-0.2-0.2-0.5-0.3-0.8-0.4 0.2 0.1 0.5 0.2 0.6 0.3z"/><path class="a" d="m115.2 300.5c0-0.3-0.1-0.7-0.3-1 0.1 0.3 0.2 0.6 0.3 1z"/><path class="b" d="m173 152.8c-11.8 5.1-25.3 10.8-42.7 10.8-7.3 0-14.5-1-21.5-3l12 123.6c0.4 5.2 2.8 10 6.6 13.5 3.8 3.5 8.8 5.5 14 5.5 0 0 17.1 0.9 22.8 0.9 6.1 0 24.5-0.9 24.5-0.9 5.2 0 10.2-1.9 14-5.5 3.8-3.5 6.2-8.3 6.6-13.5l12.9-136.5c-5.8-2-11.6-3.3-18.1-3.3-11.4 0-20.5 3.9-31.1 8.4z"/><path class="a" d="m71.5 100.2l0.2 0.2 0.1 0.1q0-0.3-0.3-0.3z"/><path fill-rule="evenodd" class="a" d="m273 112.8c-3.9 4.2-9.2 6-14.7 7.1-1.4 0.2-2.6 1-3.6 2-1 1-1.6 2.4-1.7 3.8l-2.9 28.6-6.4 62.5c-2 19.2-3.9 38.3-5.9 57.4-0.6 5.7-1.2 11.5-1.8 17.3-2.1 20.1-16.6 33-35.9 36.5-13 2.4-26.4 1.9-39.7 1.7-10.4-0.1-20.8-0.5-31-2.1-17.5-2.8-31.6-12.7-33.6-31.2-0.4-3.3-0.7-6.7-1.1-10.1-1.8-17.7-3.7-35.3-5.5-52.9l-6.5-62-3.1-30c-0.5-5.2 4.7-9.1 9.3-9.3 5.4-0.2 8.8 4.5 9.3 9.3 0.1 0.7 0.1 1.3 0.2 2l4.2 40.5 6.5 62.5c1.1 11.2 2.3 22.5 3.5 33.7 0.9 8.5 1.8 18.3 8.3 24.6 7.4 7.2 19.2 8.1 28.8 8 9 0 18 0.3 27 0.3 8.1-0.1 16.2-1 24.1-2.8 8.6-2 14.5-7.4 16.2-16.1 1.1-5.6 1.1-11.4 1.7-17q0.9-8.6 1.8-17.1c2.1-20.3 4.1-40.6 6.2-60.9 1.9-19.4 3.9-38.7 5.9-58l1-9.6c0.1-1-0.1-2-0.4-2.9-0.4-1-0.9-1.8-1.6-2.5-0.7-0.7-1.6-1.3-2.5-1.6-0.9-0.3-1.9-0.4-2.9-0.3-3.2 0.4-6.3 0.7-9.5 1-38.8 3.6-78 3-116.7-1.7-9.9-1.2-19.7-2.6-29.5-4.4-10.4-1.9-17.6-10.3-18.8-20.6-0.6-4.8 0.9-9.8 1.8-14.5 1-4.6 1.6-9.4 3.7-13.7 2.1-4.1 5.3-7.4 9.3-9.6 4.9-2.6 10-3.1 15.4-2.2 4.5 0.7 8.9 1.5 13.4 2.2 1.3 0.2 2.7 0.4 4 0.6 0.5 0 3.3 0.4 1.7 0.2 2.1 0.3 4.2 0.6 6.3 0.8 19.3 2.3 38.7 3.4 58.2 3.4 4.9 0 9.8-0.1 14.7-0.2 9.6-0.3 19.1-0.8 28.7-1.6 4.8-0.4 9.6-0.9 14.4-1.4 2.4-0.3 4.9-0.6 7.3-0.9l1.6-0.2c0.4 0 0.8-0.2 1.2-0.4 0.4-0.2 0.7-0.5 1-0.9 0.2-0.3 0.4-0.8 0.5-1.2 0.1-0.4 0.1-0.9 0-1.3-1.3-5.9-2.5-11.8-3.8-17.7v-0.1l-0.5-2.5c-0.4-2-0.7-4-1.5-5.9-2.4-5.8-9.3-6.2-14.7-7.4-3.7-0.8-7.3-1.5-11-2l-1.3-0.2c-0.7 0-1.3-0.1-1.9-0.2-1.6-0.2-3.3-0.3-4.9-0.5-7.6-0.7-15.2-1.2-22.8-1.4-15.7-0.5-31.4 0.1-47 1.7-1.8 0.3-3.6 0.6-5.4 0.7-1 0.1-1.9 0.2-2.9 0.4-2.9 0.5-5.8 1-8.6 1.6h-0.1c-0.3 0.1-0.6 0.3-0.8 0.5-0.2 0.2-0.3 0.6-0.3 0.9 0 0.3 0.1 0.7 0.3 0.9 0.2 0.2 0.5 0.4 0.8 0.5q5 1 9.9 1.8l1.6 0.2h0.3l1.6 0.2c1.6 0.2 3.2 0.4 4.9 0.6 3.6 0.4 7.2 0.7 10.9 0.9 8 0.6 16 0.8 24 0.8 8.2 0 16.4-0.2 24.5-0.8 3.7-0.3 7.3-0.6 10.9-1 1.8-0.2 3.5-0.4 5.3-0.6l0.5-0.1c0.8-0.1 1.5-0.2 2.3-0.3 5.1-0.8 9.7 1.2 11.4 6.5 1.4 4.3-1.7 10.7-6.5 11.4-4.1 0.6-8.2 1.1-12.3 1.6-16.7 1.7-33.4 2.3-50.1 1.6-15.1-0.6-30.3-1.8-45.1-5.1-5.3-1.1-10.5-2.8-15.4-5-3.8-1.7-7.4-4.3-9.5-8-3-5.1-1.7-11.6 2.4-15.7 3.3-3.4 7.8-5.3 12.2-6.9 11.9-4.4 25.1-5.8 37.7-6.9 16.9-1.5 33.9-1.7 50.8-0.8 14.1 0.8 28.5 2.1 42.2 5.7 2.9 0.8 5.8 1.7 8.6 2.7 5.5 2.1 11 5.3 13.7 10.8 2 4 2.6 9 3.4 13.5 0.9 5.2 1.7 10.4 2.6 15.6 0.5 2.8 1.1 5.8 3.2 7.8 2 1.9 5.1 2.4 7.8 3.3 8.4 2.9 12.1 10.7 13.7 18.9l1.8 9.1c2.2 8.8 1 17.5-4.8 24.1zm-13.2-18.6c0.4-4.4 0.1-9.5-2.2-13.4-3.3-5.6-9.3-3.8-14.8-2.8-6.2 1.1-12.3 2.1-18.5 2.9-33.8 4.5-68.5 5-102.5 1.9-7.9-0.7-15.9-1.7-23.8-2.9-6.5-1-14.3-3.8-20.9-3-4.3 0.5-5.7 5.3-6.4 8.9-0.8 4-2.3 10.5 0.7 13.7 1.6 1.7 4.1 2.2 6.4 2.5 23.8 3.3 47.5 6 71.5 6.8 33.5 1.1 67.2-1.4 100.3-6.3 2.9-0.4 5.9-1.3 7.9-3.2 1.4-1.3 2.3-3.1 2.3-5.1zm-189 5.2c-0.1-0.3-0.3-0.4-0.3-0.4 0 0 0.1 0.2 0.3 0.4zm-0.8-4.5c0.1 0-0.1 0.7-0.1 1-0.1-0.5-0.1-1 0.1-1zm1 4.8c0.2 0.4 0.3 0.6 0 0zm1.1 0.9c0 0 0.1 0 0 0z"/></svg>