<svg fill="#000000" xmlns="http://www.w3.org/2000/svg" viewBox="0 0 32 32" width="{{ .width }}" height="{{ .height }}"><path fill="currentColor" d="M 5 5 L 5 27 L 27 27 L 27 5 L 5 5 z M 7 7 L 25 7 L 25 18.931641 L 18.929688 16.775391 C 19.528069 15.604874 19.872428 14.319295 20 13 L 17 13 L 17 12 L 21 12 L 21 11 L 17 11 L 17 9 L 15 9 L 15 11 L 10 11 L 10 12 L 15 12 L 15 13 L 11 13 L 11 14 L 18.042969 14 C 17.874523 14.798238 17.595556 15.553113 17.226562 16.220703 C 17.067744 16.141588 16.909631 16.060926 16.748047 15.988281 C 16.275047 15.769281 15.785203 15.594937 15.283203 15.460938 C 14.281203 15.185937 13.248844 15.029953 12.214844 15.001953 C 11.955844 14.994953 11.6955 15.005813 11.4375 15.007812 C 11.1535 15.021812 10.861031 15.045953 10.582031 15.126953 C 10.020031 15.271953 9.5026563 15.571516 9.0976562 15.978516 C 8.2506563 16.776516 7.9028281 17.969375 8.0488281 19.109375 C 8.1738281 20.285375 9.0837031 21.364953 10.220703 21.751953 C 10.770703 21.960953 11.416641 22.039422 11.931641 21.982422 C 12.202641 21.976422 12.472188 21.956297 12.742188 21.904297 C 13.013188 21.866297 13.281922 21.822234 13.544922 21.740234 C 14.607922 21.469234 15.606062 20.931031 16.414062 20.207031 C 16.818062 19.845031 17.187578 19.452297 17.517578 19.029297 C 17.673578 18.811297 17.84375 18.601328 17.96875 18.361328 C 17.986598 18.324421 17.999073 18.284503 18.017578 18.248047 L 25 22.044922 L 25 25 L 7 25 L 7 7 z M 11.427734 16.341797 L 12.109375 16.388672 C 13.020375 16.473672 13.909156 16.711516 14.785156 16.978516 C 15.220156 17.122516 15.651125 17.283172 16.078125 17.451172 C 16.169125 17.488172 16.257656 17.530313 16.347656 17.570312 C 16.265656 17.685312 16.183703 17.800109 16.095703 17.912109 C 15.835703 18.249109 15.532328 18.544703 15.236328 18.845703 C 14.636328 19.436703 13.928094 19.918141 13.121094 20.244141 C 12.921094 20.332141 12.710094 20.385547 12.496094 20.435547 C 12.284094 20.499547 12.06575 20.534594 11.84375 20.558594 C 11.37975 20.644594 11.008375 20.634062 10.609375 20.539062 C 9.834375 20.367062 9.1521562 19.755547 9.0351562 18.935547 C 8.8801563 18.121547 9.246 17.233016 9.875 16.791016 C 10.182 16.559016 10.534719 16.428234 10.886719 16.365234 C 11.064719 16.330234 11.241734 16.336797 11.427734 16.341797 z"/></svg>