<svg xmlns="http://www.w3.org/2000/svg" fill="#000000" viewBox="0 0 24 24" width="{{ .width }}" height="{{ .height }}"><path fill="currentColor" d="M20.055,7.713c-0.677-0.842-1.673-1.41-2.764-1.615C16.773,3.971,14.877,3,13.045,3H5.846L2.647,18h4.114l-0.689,3h6.233 l1.17-5h1.398c3.365,0,5.38-1.445,5.989-4.295C21.278,9.752,20.653,8.456,20.055,7.713z M7.183,16H5.137L7.512,5h5.533 c0.293,0,1.5,0.061,2.078,1.013H9.351l-1.375,6.235L7.183,16z M18.906,11.287C18.5,13.188,17.293,14,14.873,14h-2.944l-1.207,5 H8.594l1.271-6h1.444c4.259,0,5.665-2.394,6.094-4.402c0.027-0.128,0.045-0.256,0.057-0.382c0.378,0.151,0.749,0.393,1.038,0.751 C18.971,9.557,19.108,10.337,18.906,11.287z"/></svg>
