<svg xmlns="http://www.w3.org/2000/svg" fill="#000000" viewBox="0 0 24 24" width="{{ .width }}" height="{{ .height }}"><path fill="currentColor" d="M 10.5 3 C 5.813 3 2 6.14 2 10 C 2 11.363 2.4712344 12.668687 3.3652344 13.804688 L 3.0117188 17.771484 C 2.9747188 18.183484 3.4393906 18.447078 3.7753906 18.205078 L 6.5488281 16.197266 C 7.6878797 16.690511 8.9474402 16.953333 10.236328 16.986328 C 10.955859 19.275512 13.264379 20.957031 16 20.957031 C 16.848 20.957031 17.677703 20.788125 18.470703 20.453125 L 21.277344 21.609375 C 21.635344 21.757375 22.015125 21.455266 21.953125 21.072266 L 21.421875 17.783203 C 21.805875 17.043203 22 16.269516 22 15.478516 C 22 13.437939 20.76981 11.657677 18.953125 10.714844 C 18.982151 10.477946 19 10.240343 19 10 C 19 6.14 15.187 3 10.5 3 z M 8.0175781 6.75 C 8.7085781 6.75 9.2675781 7.3043281 9.2675781 7.9863281 C 9.2675781 8.6683281 8.7085781 9.25 8.0175781 9.25 C 7.3265781 9.25 6.7675781 8.6703281 6.7675781 7.9863281 C 6.7675781 7.3033281 7.3265781 6.75 8.0175781 6.75 z M 13.013672 6.75 C 13.695672 6.75 14.25 7.3043281 14.25 7.9863281 C 14.25 8.6703281 13.696672 9.25 13.013672 9.25 C 12.328672 9.25 11.75 8.6703281 11.75 7.9863281 C 11.75 7.3033281 12.329672 6.75 13.013672 6.75 z M 16 12 C 18.206 12 20 13.560516 20 15.478516 C 20 16.019516 19.839437 16.560031 19.523438 17.082031 L 19.332031 17.396484 L 19.550781 18.734375 L 18.404297 18.263672 L 17.994141 18.470703 C 17.355141 18.794703 16.685 18.957031 16 18.957031 C 13.794 18.957031 12 17.396516 12 15.478516 C 12 13.560516 13.794 12 16 12 z M 14.021484 14 C 13.469484 14 13 14.447 13 15 C 13 15.553 13.472484 16 14.021484 16 C 14.570484 16 15.015625 15.553 15.015625 15 C 15.015625 14.447 14.571484 14 14.021484 14 z M 17.992188 14 A 0.99299997 1 0 0 0 17 15 A 0.99299997 1 0 0 0 17.992188 16 A 0.99299997 1 0 0 0 18.986328 15 A 0.99299997 1 0 0 0 17.992188 14 z"/></svg>
