<svg xmlns="http://www.w3.org/2000/svg" viewBox="0 0 48 48" width="{{ .width }}" height="{{ .height }}"><path fill="#8BC34A" d="M18,6C9.2,6,2,12,2,19.5c0,4.3,2.3,8,6,10.5l-2,6l6.3-3.9C14,32.7,16,33,18,33c8.8,0,16-6,16-13.5C34,12,26.8,6,18,6z"/><path fill="#7CB342" d="M20,29c0-6.1,5.8-11,13-11c0.3,0,0.6,0,0.9,0c-0.1-0.7-0.3-1.4-0.5-2c-0.1,0-0.3,0-0.4,0c-8.3,0-15,5.8-15,13c0,1.4,0.3,2.7,0.7,4c0.7,0,1.4-0.1,2.1-0.2C20.3,31.6,20,30.3,20,29z"/><path fill="#CFD8DC" d="M46,29c0-6.1-5.8-11-13-11c-7.2,0-13,4.9-13,11s5.8,11,13,11c1.8,0,3.5-0.3,5-0.8l5,2.8l-1.4-4.8C44.3,35.2,46,32.3,46,29z"/><path fill="#33691E" d="M14,15c0,1.1-0.9,2-2,2s-2-0.9-2-2s0.9-2,2-2S14,13.9,14,15z M24,13c-1.1,0-2,0.9-2,2s0.9,2,2,2s2-0.9,2-2S25.1,13,24,13z"/><path fill="#546E7A" d="M30,26.5c0,0.8-0.7,1.5-1.5,1.5S27,27.3,27,26.5s0.7-1.5,1.5-1.5S30,25.7,30,26.5z M37.5,25c-0.8,0-1.5,0.7-1.5,1.5s0.7,1.5,1.5,1.5s1.5-0.7,1.5-1.5S38.3,25,37.5,25z"/></svg>